<svg width="375" height="415" viewBox="0 0 375 415" fill="none" xmlns="http://www.w3.org/2000/svg">
<path d="M0 0H375V246.567C375 269.573 360.424 290.053 338.687 297.588L71.6873 390.148C36.6055 402.31 0 376.257 0 339.127V0Z" fill="#9CE5CB"/>
<mask id="mask0_119_76" style="mask-type:alpha" maskUnits="userSpaceOnUse" x="0" y="0" width="375" height="394">
<path d="M0 0H375V246.567C375 269.573 360.424 290.053 338.687 297.588L71.6873 390.148C36.6055 402.31 0 376.257 0 339.127V0Z" fill="#FEC6BC"/>
</mask>
<g mask="url(#mask0_119_76)">
<g style="mix-blend-mode:screen" opacity="0.28">
<path fill-rule="evenodd" clip-rule="evenodd" d="M325.138 273.598C323.773 275.648 322.477 277.596 321.262 279.434C315.182 288.63 310.28 299.012 305.3 309.561L304.989 310.22C299.887 321.024 294.667 332.001 287.946 342.251C274.554 362.675 255.191 380.237 218.932 387.245C173.162 396.091 112.479 391.504 65.7074 375.015C42.3199 366.769 22.5299 355.589 9.80928 341.736C-2.86751 327.93 -8.51832 311.492 -3.76704 292.503C2.89364 265.883 9.30105 246.422 21.8333 228.609C34.3682 210.792 53.1032 194.525 84.5963 174.473C96.9475 166.609 106.896 156.634 116.224 145.893C120.319 141.177 124.306 136.3 128.322 131.388C128.878 130.709 129.434 130.028 129.991 129.348C134.579 123.741 139.236 118.104 144.193 112.581C163.983 90.533 188.564 70.2974 232.211 61.862C248.985 58.6201 264.291 54.873 278.163 51.477C283.337 50.2104 288.311 48.9926 293.088 47.8681C310.724 43.7162 325.621 40.8477 338.128 41.3514C350.563 41.8521 360.55 45.6817 368.49 54.8997C376.49 64.1865 382.523 79.0676 386.686 101.921C392.639 134.603 382.228 170.056 367.285 201.886C353.899 230.401 336.958 255.845 325.138 273.598ZM326.184 274.296C351.183 236.75 399.347 164.411 387.923 101.695C374.254 26.6581 340.151 35.0071 277.837 50.2626C263.974 53.6565 248.714 57.3923 231.973 60.6278C175.647 71.5135 150.768 101.946 127.35 130.592C114.187 146.692 101.486 162.229 83.9212 173.413C20.8195 213.591 8.34963 238.9 -4.98641 292.198C-24.4664 370.05 127.177 406.258 219.17 388.479C274.476 377.791 291.044 342.698 306.418 310.137C311.412 299.558 316.281 289.247 322.31 280.127C323.523 278.292 324.819 276.345 326.184 274.296Z" fill="#FFF1C2"/>
<path fill-rule="evenodd" clip-rule="evenodd" d="M321.066 274.552C319.882 276.326 318.758 278.011 317.704 279.601C312.425 287.567 308.169 296.557 303.851 305.678L303.579 306.253C299.154 315.6 294.631 325.084 288.811 333.94C277.22 351.575 260.47 366.741 229.095 372.804C189.457 380.465 136.9 376.523 96.3997 362.288C76.1478 355.17 59.03 345.52 48.0372 333.572C37.0884 321.672 32.2209 307.516 36.3285 291.157C42.1086 268.137 47.6618 251.33 58.5095 235.947C69.3599 220.56 85.5802 206.499 112.872 189.151C123.598 182.333 132.234 173.689 140.326 164.391C143.88 160.309 147.338 156.087 150.82 151.837C151.302 151.25 151.783 150.662 152.265 150.074C156.244 145.223 160.279 140.349 164.574 135.574C181.715 116.518 202.994 99.0333 240.776 91.7313C255.319 88.9209 268.59 85.6733 280.614 82.7311C285.097 81.6341 289.407 80.5795 293.544 79.6059C308.83 76.0086 321.721 73.5282 332.534 73.9583C343.276 74.3856 351.881 77.6804 358.721 85.6062C365.621 93.6005 370.837 106.432 374.435 126.184C379.574 154.393 370.557 185.017 357.602 212.54C345.998 237.193 331.315 259.194 321.066 274.552ZM322.111 275.251C343.787 242.771 385.551 180.193 375.672 125.958C363.851 61.0685 334.295 68.301 280.288 81.5167C268.273 84.4568 255.147 87.7371 240.638 90.5412C191.822 99.9756 170.151 126.259 149.847 151.041C138.435 164.971 127.423 178.412 112.197 188.09C57.4994 222.86 46.6843 244.753 35.1093 290.851C18.2017 358.187 149.605 389.447 229.333 374.039C277.265 364.775 291.636 334.42 304.969 306.254C309.301 297.104 313.523 288.185 318.752 280.295C319.804 278.708 320.927 277.024 322.111 275.251Z" fill="#FFF1C2"/>
</g>
<g style="mix-blend-mode:screen" opacity="0.28">
<path fill-rule="evenodd" clip-rule="evenodd" d="M294.338 267.295C293.431 268.742 292.569 270.117 291.762 271.414C287.723 277.906 284.48 285.243 281.184 292.699L280.979 293.164C277.603 300.8 274.148 308.557 269.684 315.793C260.787 330.211 247.871 342.573 223.569 347.379C192.893 353.446 152.15 349.925 120.688 338.028C104.957 332.08 91.6259 324.067 83.0277 314.19C74.459 304.348 70.5937 292.671 73.6978 279.232C78.0493 260.393 82.2626 246.627 90.5936 234.056C98.9264 221.483 111.427 210.036 132.472 195.962C140.726 190.442 147.358 183.416 153.57 175.844C156.297 172.519 158.951 169.08 161.624 165.616C161.994 165.137 162.364 164.658 162.735 164.178C165.79 160.224 168.889 156.249 172.192 152.356C185.374 136.816 201.78 122.581 231.034 116.796C242.276 114.573 252.531 111.985 261.825 109.639C265.292 108.764 268.624 107.923 271.825 107.148C283.642 104.283 293.626 102.316 302.022 102.729C310.369 103.139 317.088 105.898 322.458 112.467C327.867 119.086 331.983 129.661 334.878 145.878C339.019 169.071 332.189 194.155 322.303 216.651C313.446 236.803 302.191 254.764 294.338 267.295ZM295.043 267.794C311.652 241.292 343.653 190.23 335.707 145.724C326.2 92.4743 303.351 98.2406 261.601 108.777C252.313 111.121 242.089 113.701 230.868 115.92C193.117 123.386 176.556 144.847 160.968 165.047C152.207 176.402 143.752 187.358 132.015 195.207C89.8465 223.406 81.5907 241.291 72.8781 279.011C60.1517 334.108 162.079 360.448 223.735 348.255C260.802 340.925 271.765 316.124 281.937 293.112C285.242 285.636 288.463 278.348 292.469 271.91C293.275 270.615 294.136 269.241 295.043 267.794Z" fill="#FFF1C2"/>
<path fill-rule="evenodd" clip-rule="evenodd" d="M291.609 267.953C290.823 269.205 290.075 270.394 289.375 271.517C285.868 277.14 283.052 283.493 280.195 289.94L280.015 290.346C277.087 296.952 274.094 303.654 270.227 309.906C262.527 322.355 251.354 333.03 230.326 337.189C203.759 342.442 168.471 339.414 141.229 329.144C127.606 324.008 116.076 317.092 108.646 308.574C101.245 300.09 97.9156 290.034 100.599 278.457C104.376 262.165 108.028 250.276 115.239 239.42C122.452 228.562 133.275 218.667 151.513 206.492C158.68 201.707 164.438 195.618 169.827 189.064C172.193 186.185 174.496 183.208 176.814 180.211C177.134 179.797 177.455 179.383 177.776 178.968C180.424 175.548 183.11 172.111 185.971 168.745C197.389 155.313 211.592 143.014 236.915 138.007C246.661 136.079 255.553 133.836 263.609 131.804C266.613 131.046 269.5 130.318 272.272 129.646C282.514 127.165 291.154 125.464 298.413 125.817C305.623 126.167 311.413 128.541 316.039 134.19C320.704 139.887 324.262 149.006 326.765 163.022C330.338 183.041 324.424 204.708 315.852 224.16C308.174 241.583 298.419 257.112 291.609 267.953ZM292.313 268.453C306.716 245.527 334.465 201.355 327.593 162.868C319.372 116.819 299.569 121.814 263.385 130.942C255.335 132.972 246.541 135.239 236.816 137.162C204.098 143.633 189.673 162.167 176.157 179.643C168.56 189.466 161.23 198.944 151.056 205.737C114.503 230.14 107.343 245.61 99.7799 278.234C88.7329 325.889 177.055 348.632 230.491 338.064C262.616 331.711 272.125 310.258 280.948 290.353C283.814 283.886 286.608 277.583 290.082 272.014C290.781 270.893 291.527 269.705 292.313 268.453Z" fill="#FFF1C2"/>
</g>
</g>
<mask id="mask1_119_76" style="mask-type:alpha" maskUnits="userSpaceOnUse" x="0" y="0" width="375" height="394">
<path d="M0 0H375V246.567C375 269.573 360.424 290.053 338.687 297.588L71.6873 390.148C36.6055 402.31 0 376.257 0 339.127V0Z" fill="#FEC6BC"/>
</mask>
<g mask="url(#mask1_119_76)">
<g style="mix-blend-mode:screen" opacity="0.28">
<path fill-rule="evenodd" clip-rule="evenodd" d="M325.138 273.598C323.773 275.648 322.477 277.596 321.262 279.434C315.182 288.63 310.28 299.012 305.3 309.561L304.989 310.22C299.887 321.024 294.667 332.001 287.946 342.251C274.554 362.675 255.191 380.237 218.932 387.245C173.162 396.091 112.479 391.504 65.7074 375.015C42.3199 366.769 22.5299 355.589 9.80928 341.736C-2.86751 327.93 -8.51832 311.492 -3.76704 292.503C2.89364 265.883 9.30105 246.422 21.8333 228.609C34.3682 210.792 53.1032 194.525 84.5963 174.473C96.9475 166.609 106.896 156.634 116.224 145.893C120.319 141.177 124.306 136.3 128.322 131.388C128.878 130.709 129.434 130.028 129.991 129.348C134.579 123.741 139.236 118.104 144.193 112.581C163.983 90.533 188.564 70.2974 232.211 61.862C248.985 58.6201 264.291 54.873 278.163 51.477C283.337 50.2104 288.311 48.9926 293.088 47.8681C310.724 43.7162 325.621 40.8477 338.128 41.3514C350.563 41.8521 360.55 45.6817 368.49 54.8997C376.49 64.1865 382.523 79.0676 386.686 101.921C392.639 134.603 382.228 170.056 367.285 201.886C353.899 230.401 336.958 255.845 325.138 273.598ZM326.184 274.296C351.183 236.75 399.347 164.411 387.923 101.695C374.254 26.6581 340.151 35.0071 277.837 50.2626C263.974 53.6565 248.714 57.3923 231.973 60.6278C175.647 71.5135 150.768 101.946 127.35 130.592C114.187 146.692 101.486 162.229 83.9212 173.413C20.8195 213.591 8.34963 238.9 -4.98641 292.198C-24.4664 370.05 127.177 406.258 219.17 388.479C274.476 377.791 291.044 342.698 306.418 310.137C311.412 299.558 316.281 289.247 322.31 280.127C323.523 278.292 324.819 276.345 326.184 274.296Z" fill="#FFF1C2"/>
<path fill-rule="evenodd" clip-rule="evenodd" d="M321.066 274.552C319.882 276.326 318.758 278.011 317.704 279.601C312.425 287.567 308.169 296.557 303.851 305.678L303.579 306.253C299.154 315.6 294.631 325.084 288.811 333.94C277.22 351.575 260.47 366.741 229.095 372.804C189.457 380.465 136.9 376.523 96.3997 362.288C76.1478 355.17 59.03 345.52 48.0372 333.572C37.0884 321.672 32.2209 307.516 36.3285 291.157C42.1086 268.137 47.6618 251.33 58.5095 235.947C69.3599 220.56 85.5802 206.499 112.872 189.151C123.598 182.333 132.234 173.689 140.326 164.391C143.88 160.309 147.338 156.087 150.82 151.837C151.302 151.25 151.783 150.662 152.265 150.074C156.244 145.223 160.279 140.349 164.574 135.574C181.715 116.518 202.994 99.0333 240.776 91.7313C255.319 88.9209 268.59 85.6733 280.614 82.7311C285.097 81.6341 289.407 80.5795 293.544 79.6059C308.83 76.0086 321.721 73.5282 332.534 73.9583C343.276 74.3856 351.881 77.6804 358.721 85.6062C365.621 93.6005 370.837 106.432 374.435 126.184C379.574 154.393 370.557 185.017 357.602 212.54C345.998 237.193 331.315 259.194 321.066 274.552ZM322.111 275.251C343.787 242.771 385.551 180.193 375.672 125.958C363.851 61.0685 334.295 68.301 280.288 81.5167C268.273 84.4568 255.147 87.7371 240.638 90.5412C191.822 99.9756 170.151 126.259 149.847 151.041C138.435 164.971 127.423 178.412 112.197 188.09C57.4994 222.86 46.6843 244.753 35.1093 290.851C18.2017 358.187 149.605 389.447 229.333 374.039C277.265 364.775 291.636 334.42 304.969 306.254C309.301 297.104 313.523 288.185 318.752 280.295C319.804 278.708 320.927 277.024 322.111 275.251Z" fill="#FFF1C2"/>
</g>
<g style="mix-blend-mode:screen" opacity="0.28">
<path fill-rule="evenodd" clip-rule="evenodd" d="M294.338 267.295C293.431 268.742 292.569 270.117 291.762 271.414C287.723 277.906 284.48 285.243 281.184 292.699L280.979 293.164C277.603 300.8 274.148 308.557 269.684 315.793C260.787 330.211 247.871 342.573 223.569 347.379C192.893 353.446 152.15 349.925 120.688 338.028C104.957 332.08 91.6259 324.067 83.0277 314.19C74.459 304.348 70.5937 292.671 73.6978 279.232C78.0493 260.393 82.2626 246.627 90.5936 234.056C98.9264 221.483 111.427 210.036 132.472 195.962C140.726 190.442 147.358 183.416 153.57 175.844C156.297 172.519 158.951 169.08 161.624 165.616C161.994 165.137 162.364 164.658 162.735 164.178C165.79 160.224 168.889 156.249 172.192 152.356C185.374 136.816 201.78 122.581 231.034 116.796C242.276 114.573 252.531 111.985 261.825 109.639C265.292 108.764 268.624 107.923 271.825 107.148C283.642 104.283 293.626 102.316 302.022 102.729C310.369 103.139 317.088 105.898 322.458 112.467C327.867 119.086 331.983 129.661 334.878 145.878C339.019 169.071 332.189 194.155 322.303 216.651C313.446 236.803 302.191 254.764 294.338 267.295ZM295.043 267.794C311.652 241.292 343.653 190.23 335.707 145.724C326.2 92.4743 303.351 98.2406 261.601 108.777C252.313 111.121 242.089 113.701 230.868 115.92C193.117 123.386 176.556 144.847 160.968 165.047C152.207 176.402 143.752 187.358 132.015 195.207C89.8465 223.406 81.5907 241.291 72.8781 279.011C60.1517 334.108 162.079 360.448 223.735 348.255C260.802 340.925 271.765 316.124 281.937 293.112C285.242 285.636 288.463 278.348 292.469 271.91C293.275 270.615 294.136 269.241 295.043 267.794Z" fill="#FFF1C2"/>
<path fill-rule="evenodd" clip-rule="evenodd" d="M291.609 267.953C290.823 269.205 290.075 270.394 289.375 271.517C285.868 277.14 283.052 283.493 280.195 289.94L280.015 290.346C277.087 296.952 274.094 303.654 270.227 309.906C262.527 322.355 251.354 333.03 230.326 337.189C203.759 342.442 168.471 339.414 141.229 329.144C127.606 324.008 116.076 317.092 108.646 308.574C101.245 300.09 97.9156 290.034 100.599 278.457C104.376 262.165 108.028 250.276 115.239 239.42C122.452 228.562 133.275 218.667 151.513 206.492C158.68 201.707 164.438 195.618 169.827 189.064C172.193 186.185 174.496 183.208 176.814 180.211C177.134 179.797 177.455 179.383 177.776 178.968C180.424 175.548 183.11 172.111 185.971 168.745C197.389 155.313 211.592 143.014 236.915 138.007C246.661 136.079 255.553 133.836 263.609 131.804C266.613 131.046 269.5 130.318 272.272 129.646C282.514 127.165 291.154 125.464 298.413 125.817C305.623 126.167 311.413 128.541 316.039 134.19C320.704 139.887 324.262 149.006 326.765 163.022C330.338 183.041 324.424 204.708 315.852 224.16C308.174 241.583 298.419 257.112 291.609 267.953ZM292.313 268.453C306.716 245.527 334.465 201.355 327.593 162.868C319.372 116.819 299.569 121.814 263.385 130.942C255.335 132.972 246.541 135.239 236.816 137.162C204.098 143.633 189.673 162.167 176.157 179.643C168.56 189.466 161.23 198.944 151.056 205.737C114.503 230.14 107.343 245.61 99.7799 278.234C88.7329 325.889 177.055 348.632 230.491 338.064C262.616 331.711 272.125 310.258 280.948 290.353C283.814 283.886 286.608 277.583 290.082 272.014C290.781 270.893 291.527 269.705 292.313 268.453Z" fill="#FFF1C2"/>
</g>
</g>
</svg>
